REM DIRINDEX 1\5,1\2\6,1\2\7,1\3\8,1\3\9,1\4\10,1\4\11,1\4\12
REM DIRNAME cjc026,folder01,folder02,folder03,folder04,folder05,folder06,folder07,folder08,folder09,folder10,folder11
TITLE ""
FILE "EJE_DB3000_5th_3B_03.mp3" MP3
  TRACK 01 AUDIO
    TITLE "0:"
    INDEX 01 00:00:00
  TRACK 02 AUDIO
    TITLE "10:cjc026_08466"
    INDEX 01 00:00:10
  TRACK 03 AUDIO
    TITLE "0:"
    INDEX 01 00:01:30
  TRACK 04 AUDIO
    TITLE "11:cjc026_08467"
    INDEX 01 00:01:70
  TRACK 05 AUDIO
    TITLE "0:"
    INDEX 01 00:03:39
  TRACK 06 AUDIO
    TITLE "12:cjc026_08468"
    INDEX 01 00:04:02
  TRACK 07 AUDIO
    TITLE "0:"
    INDEX 01 00:05:24
  TRACK 08 AUDIO
    TITLE "10:cjc026_08469"
    INDEX 01 00:05:62
  TRACK 09 AUDIO
    TITLE "0:"
    INDEX 01 00:07:06
  TRACK 10 AUDIO
    TITLE "11:cjc026_08470"
    INDEX 01 00:07:42
  TRACK 11 AUDIO
    TITLE "0:"
    INDEX 01 00:09:16
  TRACK 12 AUDIO
    TITLE "12:cjc026_08471"
    INDEX 01 00:09:51
  TRACK 13 AUDIO
    TITLE "0:"
    INDEX 01 00:10:70
  TRACK 14 AUDIO
    TITLE "10:cjc026_08472"
    INDEX 01 00:11:33
  TRACK 15 AUDIO
    TITLE "0:"
    INDEX 01 00:12:61
  TRACK 16 AUDIO
    TITLE "11:cjc026_08473"
    INDEX 01 00:13:24
  TRACK 17 AUDIO
    TITLE "0:"
    INDEX 01 00:14:62
  TRACK 18 AUDIO
    TITLE "12:cjc026_08474"
    INDEX 01 00:15:25
  TRACK 19 AUDIO
    TITLE "0:"
    INDEX 01 00:16:52
  TRACK 20 AUDIO
    TITLE "10:cjc026_08475"
    INDEX 01 00:17:15
  TRACK 21 AUDIO
    TITLE "0:"
    INDEX 01 00:18:43
  TRACK 22 AUDIO
    TITLE "11:cjc026_08476"
    INDEX 01 00:19:00
  TRACK 23 AUDIO
    TITLE "0:"
    INDEX 01 00:20:39
  TRACK 24 AUDIO
    TITLE "12:cjc026_08477"
    INDEX 01 00:20:74
  TRACK 25 AUDIO
    TITLE "0:"
    INDEX 01 00:22:26
  TRACK 26 AUDIO
    TITLE "10:cjc026_08478"
    INDEX 01 00:22:64
  TRACK 27 AUDIO
    TITLE "0:"
    INDEX 01 00:24:14
  TRACK 28 AUDIO
    TITLE "11:cjc026_08479"
    INDEX 01 00:24:49
  TRACK 29 AUDIO
    TITLE "0:"
    INDEX 01 00:26:26
  TRACK 30 AUDIO
    TITLE "12:cjc026_08480"
    INDEX 01 00:26:64
  TRACK 31 AUDIO
    TITLE "0:"
    INDEX 01 00:28:11
  TRACK 32 AUDIO
    TITLE "10:cjc026_08481"
    INDEX 01 00:28:49
  TRACK 33 AUDIO
    TITLE "0:"
    INDEX 01 00:29:66
  TRACK 34 AUDIO
    TITLE "11:cjc026_08482"
    INDEX 01 00:30:31
  TRACK 35 AUDIO
    TITLE "0:"
    INDEX 01 00:31:45
  TRACK 36 AUDIO
    TITLE "12:cjc026_08483"
    INDEX 01 00:32:08
  TRACK 37 AUDIO
    TITLE "0:"
    INDEX 01 00:33:27
  TRACK 38 AUDIO
    TITLE "10:cjc026_08484"
    INDEX 01 00:33:65
  TRACK 39 AUDIO
    TITLE "0:"
    INDEX 01 00:35:26
  TRACK 40 AUDIO
    TITLE "11:cjc026_08485"
    INDEX 01 00:35:66
  TRACK 41 AUDIO
    TITLE "0:"
    INDEX 01 00:37:46
  TRACK 42 AUDIO
    TITLE "12:cjc026_08486"
    INDEX 01 00:38:09
  TRACK 43 AUDIO
    TITLE "0:"
    INDEX 01 00:39:45
  TRACK 44 AUDIO
    TITLE "10:cjc026_08487"
    INDEX 01 00:40:10
  TRACK 45 AUDIO
    TITLE "0:"
    INDEX 01 00:41:46
  TRACK 46 AUDIO
    TITLE "11:cjc026_08488"
    INDEX 01 00:42:09
  TRACK 47 AUDIO
    TITLE "0:"
    INDEX 01 00:43:36
  TRACK 48 AUDIO
    TITLE "12:cjc026_08489"
    INDEX 01 00:43:74
  TRACK 49 AUDIO
    TITLE "0:"
    INDEX 01 00:45:35
  TRACK 50 AUDIO
    TITLE "10:cjc026_08490"
    INDEX 01 00:45:72
  TRACK 51 AUDIO
    TITLE "0:"
    INDEX 01 00:47:22
  TRACK 52 AUDIO
    TITLE "11:cjc026_08491"
    INDEX 01 00:47:60
  TRACK 53 AUDIO
    TITLE "0:"
    INDEX 01 00:49:26
  TRACK 54 AUDIO
    TITLE "12:cjc026_08492"
    INDEX 01 00:49:61
  TRACK 55 AUDIO
    TITLE "0:"
    INDEX 01 00:51:11
  TRACK 56 AUDIO
    TITLE "10:cjc026_08493"
    INDEX 01 00:51:52
  TRACK 57 AUDIO
    TITLE "0:"
    INDEX 01 00:53:15
  TRACK 58 AUDIO
    TITLE "11:cjc026_08494"
    INDEX 01 00:53:53
  TRACK 59 AUDIO
    TITLE "0:"
    INDEX 01 00:55:41
  TRACK 60 AUDIO
    TITLE "12:cjc026_08495"
    INDEX 01 00:56:03
  TRACK 61 AUDIO
    TITLE "0:"
    INDEX 01 00:57:45
  TRACK 62 AUDIO
    TITLE "10:cjc026_08496"
    INDEX 01 00:58:02
  TRACK 63 AUDIO
    TITLE "0:"
    INDEX 01 00:59:21
  TRACK 64 AUDIO
    TITLE "11:cjc026_08497"
    INDEX 01 00:59:59
  TRACK 65 AUDIO
    TITLE "0:"
    INDEX 01 01:00:65
  TRACK 66 AUDIO
    TITLE "12:cjc026_08498"
    INDEX 01 01:01:25
  TRACK 67 AUDIO
    TITLE "0:"
    INDEX 01 01:02:45
  TRACK 68 AUDIO
    TITLE "10:cjc026_08499"
    INDEX 01 01:03:08
  TRACK 69 AUDIO
    TITLE "0:"
    INDEX 01 01:04:27
  TRACK 70 AUDIO
    TITLE "11:cjc026_08500"
    INDEX 01 01:04:62
  TRACK 71 AUDIO
    TITLE "0:"
    INDEX 01 01:06:12
  TRACK 72 AUDIO
    TITLE "12:cjc026_08501"
    INDEX 01 01:06:47
  TRACK 73 AUDIO
    TITLE "0:"
    INDEX 01 01:07:67
  TRACK 74 AUDIO
    TITLE "10:cjc026_08502"
    INDEX 01 01:08:30
  TRACK 75 AUDIO
    TITLE "0:"
    INDEX 01 01:09:49
  TRACK 76 AUDIO
    TITLE "11:cjc026_08503"
    INDEX 01 01:10:12
  TRACK 77 AUDIO
    TITLE "0:"
    INDEX 01 01:11:53
  TRACK 78 AUDIO
    TITLE "12:cjc026_08504"
    INDEX 01 01:12:13
  TRACK 79 AUDIO
    TITLE "0:"
    INDEX 01 01:13:33
